# xmcd
#
# Track frame offsets:
#	150
#	17496
#	31381
#	50370
#	66275
#	79499
#	98719
#	117404
#	131035
#	147524
#	164433
#	184147
#	198777
#	218666
#	237582
#
# Disc length: 3407 seconds
#
# Revision: 1
# Processed by: cddbd v1.5.2PL0 Copyright (c) Steve Scherf et al.
# Submitted via: audiograbber 1.83.01
#
DISCID=d90d4d0f
DTITLE=George Thorogood and The Destroyers - The Hard Stuff
DYEAR=2006
DGENRE=Rock
TTITLE0=Hard Stuff
TTITLE1=Hello Josephine
TTITLE2=Moving
TTITLE3=I Got My Eyes On You
TTITLE4=I Didn't Know
TTITLE5=Any Town USA
TTITLE6=Little Rain Falling
TTITLE7=Cool It!
TTITLE8=Love Doctor
TTITLE9=Dynaflo Blues
TTITLE10=Rock Party
TTITLE11=Drifter's Escape
TTITLE12=Give Me Back My Wig
TTITLE13=Takin' Care Of Business
TTITLE14=Huckle Up Baby
EXTD=
EXTT0=
EXTT1=
EXTT2=
EXTT3=
EXTT4=
EXTT5=
EXTT6=
EXTT7=
EXTT8=
EXTT9=
EXTT10=
EXTT11=
EXTT12=
EXTT13=
EXTT14=
PLAYORDER=
